<?xml version="1.0" encoding="UTF-8"?>
<svg id="Layer_1" xmlns="http://www.w3.org/2000/svg" version="1.1" viewBox="0 0 85.1 101.4">
  <!-- Generator: Adobe Illustrator 29.5.0, SVG Export Plug-In . SVG Version: 2.1.0 Build 137)  -->
  <defs>
    <style>
      .st0 {
        fill: #616262;
      }

      .st1 {
        fill: #aed389;
      }

      .st2 {
        fill: #f9baba;
      }
    </style>
  </defs>
  <path class="st1" d="M28.8,92.4c.8-3,1.6-6.1,2.4-9.1.4-1.5.8-3.1.6-4.7-.1-1.6-.8-3.1-1.7-4.5-6.1-9.6-19.4-11.6-27.2-19.8,2,3.2,3.5,6.7,4.3,10.3.4,2,.7,4.1,1.5,6,1.2,2.8,3.4,5,5.5,7.1,4.9,4.8,9.7,9.5,14.6,14.3"/>
  <g>
    <path class="st1" d="M85.1,62.1c-.5-.4-1.8-.6-2.7-.7-4.5-.1-12.6,3.1-19,6.9-6.4,3.8-12.1,8.7-17.8,13.5-2.1,1.8-4.2,3.5-6.2,5.3-1.9,1.6-3.9,4.2-5.1,5.5-.3.3-2.6,1.8-2.4,2.2.2.4,4.4.3,4.8.3,1.9,0,6.5.2,10.4-.2,4.5-.4,9.2,0,13.7-.5,1.7-.2,3.4-.3,5-.9,3.9-1.3,6.8-4.7,9.3-8,3.9-5.3,7.3-14.6,8.2-17.3s2.1-5.8,2-6.3"/>
    <g>
      <path class="st2" d="M29.4,32.9c-2.6-4.3-4.9-8.7-6.8-13.3-.9-2.2-1.8-4.8-.8-7,.5-1,1.4-1.9,2.2-2.6,2.2-2,4.5-4,7.3-4.8,3.9-1.1,8.1.4,11.4,2.8,1.5,1.1,2.9,2.5,3.5,4.3.7,2.4-.3,4.9.1,7.4.1.8.5,1.5,1.1,1.9.9.5,2,.2,2.9-.2,3.9-2,6.5-6.6,10.8-7.4,3-.5,6.2,1.2,7.4,3.9.8,1.7.8,3.6.6,5.5-.9,7.7-5.9,14.3-10.8,20.3-2.5,3-5.1,6-8.4,8.1s-7.5,3.1-11.2,1.8c-2.6-.9-4.8-2.9-7.4-3.7-1.4-.4-2.9-.5-4.4-.5-4.9-.2-9.8-.8-14.4-2.6-4.6-1.8-8.8-4.8-11.2-9.1-1.4-2.4-2.1-5.5-.6-7.8,1.6-2.4,5.1-3,7.9-2.2s5.3,2.5,7.9,3.7c3.5,1.6,7.4,2.3,11.2,2.1.6,0,1.4-.7.9-1"/>
      <path class="st0" d="M81,55.7c-4.7,1.2-9.2,3.1-13.3,5.6-7.5,4.4-14.1,10.4-20.3,16.6-1.6,1.6-3.2,3.2-4.7,4.9-1.7,1.8-3.2,3.8-4.7,5.8-2.6,3.6-5.1,7.2-8,10.6,0-3.5-1.3-7-3.1-9.9-2-3.3-4.7-6-8.1-7.9-2-1.1-4.1-2-5.9-3.4-1.5-1.1-2.7-2.5-3.7-4.1-1-1.6-1.7-3.3-2.2-5-.5-1.8-.5-3.6-.5-5.4,0-2.6.1-5.5-1.1-7.8,2.6,1.2,4.8,3.3,6.9,5.3,2.5,2.3,5,4.5,7.4,6.8,2.3,2.1,4.7,4.1,6.8,6.3,1.8,2,2.8,4.5,3.6,7,.8,2.4,1.6,5.1,1,7.7-.1.7.7,1,1.1.4,1.6-2.5,2.9-5.2,4-8,1.2-2.9,2.2-5.8,3.2-8.7,1-2.9,2.1-5.8,3.2-8.7,1.8-4.8,3.1-9.8,3.5-14.8,1.1-.3,2.1-.7,3.2-1,2.8-1,5.7-2.2,8.4-3.5,2.7-1.3,5.2-2.9,7.1-5.2,3.8-4.7,5.7-11,6.1-17,.2-3,0-6.1-.7-9-.6-2.2-1.9-4.8-4.4-5-1.3,0-2.6.6-3.7,1.3-1.3.8-2.5,1.7-3.7,2.6-2.4,1.8-4.7,3.8-6.8,5.9-2.1,2.1-4.3,4.4-6,7-1.8,2.7-2.1,5.6-1.8,8.7.4,3.1,1.1,6.1,1.3,9.3,0,1.7,0,3.4,0,5.1-1.4.4-2.9.8-4.3,1.2-4.9,1.2-10,2.1-15.1,2.4-2,.1-4,.2-6,0-2.8-.3-6-.9-8.4-2.5-2.2-1.5-3.6-4-5-6.3-1.4-2.3-2.9-4.8-3.6-7.5-.6-2.2-.6-4.8.4-6.9,1-2.2,3.2-3.5,5.6-3.3,2.5.1,4.8,1.5,6.9,2.8,2.6,1.7,5,3.6,7.5,5.4,1.3,1,2.7,2,4,2.9,1.2.9,2.5,2.1,3.9,2.6,1.2.4,2.4.2,3.3-.7.8-.9.7-2,0-2.9-.7-1-1.7-1.7-2.6-2.6-1-1-2.1-1.9-3.1-2.9-1.9-1.9-3.8-3.9-5.4-6.1-2.7-4-5.5-9.9-2.5-14.4,2.1-3.2,6-4.2,9.5-4.8,1.2-.2,2.3-.3,3.4-.8,1.6-.7,3.2-1.4,4.9-1.9,2.2-.6,4.6-.6,6.7.2,2.2.8,4.3,2.3,5.2,4.6,1.8,4.7-.2,10.2-3.1,14-.3.3.2.8.5.5,1.6-2.1,2.9-4.4,3.5-7,.6-2.2.8-4.6.2-6.9-.6-2.2-1.9-3.8-3.8-4.9-4.1-2.5-8.8-1.8-13,0-1.2.5-2.3,1-3.6,1.2-1.6.3-3.3.5-4.9,1-4.1,1.2-7.6,4.3-7.8,8.8-.1,2.7.8,5.4,2,7.8,1.2,2.5,2.8,4.7,4.6,6.8,1.9,2.2,4.1,4.2,6.2,6.2.5.5,1,1,1.5,1.4.4.4,1,.9.9,1.6-.1.7-.9,1.1-1.6,1-.8,0-1.6-.6-2.3-1-2.8-2-5.6-4.1-8.4-6.2-2.4-1.8-4.8-3.7-7.5-5.1-2.2-1.1-4.6-2-7.1-1.5-2.3.5-4.1,2.2-5,4.4-2,5.1.7,10.4,3.4,14.8,1.4,2.3,2.9,4.8,5.1,6.5,2.4,1.8,5.6,2.5,8.5,2.9,4.5.6,9.2.1,13.7-.5,4.2-.6,8.4-1.6,12.5-2.8,0,1-.2,2-.4,3-.5,3.1-1.3,6.2-2.3,9.2-1,3-2.3,6-3.3,9.1-1.9,5.4-3.7,10.8-6.4,15.8,0-2.2-.7-4.3-1.4-6.3-.4-1.2-.9-2.4-1.5-3.6-.6-1.3-1.5-2.5-2.5-3.5-2.3-2.4-4.9-4.6-7.4-6.8-2.6-2.4-5.3-4.8-7.9-7.2-2.3-2.1-4.7-4.2-7.8-5-.6-.2-.9.6-.5,1,2.6,2.8,1.7,7.4,1.8,10.9.2,3.5,1.4,7,3.5,9.8,1,1.4,2.3,2.6,3.7,3.7,1.8,1.3,3.8,2.2,5.7,3.3,3.3,1.9,6,4.7,7.9,8,1.8,3.1,3.1,6.8,2.6,10.4,0,0,0,0,0,.1.5.1,1,.3,1.5.5,0,0,0,0,0,0,.5-.8,1.1-1.6,1.8-2.3.2-.2.6-.4,1-.6.9-.4,1.9-.8,2.9-1.1,2-.7,4.1-1.2,6.3-1.6,4.8-.7,9.7-1.2,14.6-1.8,2.4-.3,4.8-.6,7.1-.9,1.9-.3,3.9-.6,5.8-1.2,3.8-1.4,6.2-4.5,7.7-8.2,1.7-4.2,2.6-8.7,3.3-13.1.8-4.7,1.2-9.5,1.3-14.3,0-.5-.5-.8-.9-.7ZM45.1,28.2c.7-2.9,3-5.3,5-7.5,2-2.2,4.1-4.2,6.3-6.1,2.2-1.8,4.5-3.6,7-5,1.2-.6,2.5-.9,3.7,0,.9.7,1.5,1.9,1.8,3,.8,2.7.9,5.7.8,8.5-.1,3-.7,6-1.6,8.8-.9,2.8-2.3,5.6-4.2,8-1.8,2.2-4.3,3.8-6.8,5-3.5,1.7-7.1,3.1-10.8,4.3,0-.4,0-.9,0-1.3,0-2.9-.2-5.9-.7-8.8-.5-2.9-1.3-6-.5-9ZM80.4,60c-.2,4.8-.9,9.6-1.9,14.3-.9,4.1-1.8,8.6-4.1,12.2-1.1,1.7-2.5,3-4.3,3.9-1.8.8-3.8,1.2-5.7,1.5-4.8.7-9.6,1.2-14.4,1.8-4.5.6-9,.9-13.4,2.3-1,.3-2,.7-3,1.1-.1,0-.2,0-.4.1,2.3-2.9,4.4-6,6.7-9,2.8-3.7,6.1-7,9.4-10.2,3.1-3.1,6.3-6,9.7-8.8,6.4-5.2,13.5-9.6,21.4-11.8,0,.9,0,1.8,0,2.7Z"/>
    </g>
  </g>
</svg>